<?xml version="1.0" standalone="no"?>
<!DOCTYPE svg PUBLIC "-//W3C//DTD SVG 20010904//EN"
 "http://www.w3.org/TR/2001/REC-SVG-20010904/DTD/svg10.dtd">
<svg version="1.0" xmlns="http://www.w3.org/2000/svg"
 width="512.000000pt" height="512.000000pt" viewBox="0 0 512.000000 512.000000"
 preserveAspectRatio="xMidYMid meet">
<metadata>
Created by potrace 1.11, written by Peter Selinger 2001-2013
</metadata>
<g transform="translate(0.000000,512.000000) scale(0.100000,-0.100000)"
fill="#000000" stroke="none">
<path d="M0 2560 l0 -2560 2560 0 2560 0 0 2560 0 2560 -2560 0 -2560 0 0
-2560z m2754 1264 c14 -14 16 -69 16 -455 0 -241 2 -439 4 -439 2 0 57 31 122
69 66 37 233 134 372 215 139 80 263 146 276 146 13 0 30 -8 38 -17 30 -35
168 -289 168 -309 0 -12 -8 -28 -17 -36 -10 -8 -181 -109 -380 -224 -200 -114
-363 -211 -363 -214 0 -3 166 -101 368 -217 202 -117 373 -218 380 -225 21
-21 13 -50 -45 -152 -98 -175 -120 -206 -147 -206 -13 0 -88 38 -167 83 -394
229 -600 347 -604 347 -3 0 -5 -198 -5 -439 0 -386 -2 -441 -16 -455 -23 -24
-365 -24 -388 0 -14 14 -16 69 -16 455 0 241 -2 439 -5 439 -4 0 -210 -118
-604 -347 -79 -45 -153 -83 -166 -83 -12 0 -29 8 -37 18 -30 35 -168 289 -168
309 0 12 11 30 24 40 13 10 184 110 380 223 195 113 356 207 356 210 0 3 -163
100 -362 214 -200 115 -371 216 -380 224 -10 8 -18 24 -18 36 0 20 138 274
168 309 8 9 25 17 38 17 13 0 137 -66 276 -146 139 -81 306 -178 372 -215 65
-38 120 -69 122 -69 2 0 4 198 4 439 0 386 2 441 16 455 13 13 45 16 194 16
149 0 181 -3 194 -16z"/>
</g>
</svg>
