<svg width="18" height="15" viewBox="0 0 18 15" fill="none" xmlns="http://www.w3.org/2000/svg">
<path d="M18 1.78125C17.4975 2.53125 16.8693 3.19922 16.1497 3.73828C16.1612 3.90234 16.1612 4.06641 16.1612 4.23047C16.1612 9.23438 12.4492 15 5.66497 15C3.57487 15 1.63325 14.3789 0 13.3008C0.296954 13.3359 0.582487 13.3477 0.890862 13.3477C2.61548 13.3477 4.20305 12.75 5.47081 11.7305C3.84898 11.6953 2.48985 10.6055 2.02157 9.10547C2.25 9.14062 2.47843 9.16406 2.71827 9.16406C3.04949 9.16406 3.38071 9.11719 3.68909 9.03516C1.99873 8.68359 0.730965 7.16016 0.730965 5.32031C0.730965 5.30859 0.730965 5.28516 0.730965 5.27344C1.22208 5.55469 1.79315 5.73047 2.39848 5.75391C1.40482 5.07422 0.753807 3.91406 0.753807 2.60156C0.753807 1.89844 0.936548 1.25391 1.25634 0.691406C3.07233 2.98828 5.80203 4.48828 8.86294 4.65234C8.80584 4.37109 8.77157 4.07812 8.77157 3.78516C8.77157 1.69922 10.4162 0 12.4607 0C13.5228 0 14.4822 0.457031 15.1561 1.19531C15.9898 1.03125 16.7893 0.714844 17.4975 0.28125C17.2234 1.16016 16.6409 1.89844 15.8756 2.36719C16.618 2.28516 17.3376 2.07422 18 1.78125Z" fill="#EEEEEE"/>
</svg>
