<svg width="6210" height="1280" viewBox="0 0 6210 1280" fill="none" xmlns="http://www.w3.org/2000/svg">
<rect width="6210" height="1280" fill="#4A4F4F"/>
<path d="M1069.2 669.889C1067.54 669.889 1066.2 671.232 1066.2 672.889V762.998C1066.2 765.759 1063.96 767.998 1061.2 767.998H1029C1026.24 767.998 1024 765.759 1024 762.998V517C1024 514.238 1026.24 512 1029 512H1109.63C1122.4 512.117 1134.18 514.051 1144.97 517.802C1155.87 521.436 1165.24 526.71 1173.1 533.626C1180.95 540.424 1187.05 548.747 1191.38 558.593C1195.84 568.322 1198.06 579.34 1198.06 591.648C1198.06 603.604 1195.84 614.387 1191.38 623.999C1187.05 633.611 1180.95 641.816 1173.1 648.614C1165.24 655.413 1155.87 660.629 1144.97 664.262C1134.18 667.896 1122.4 669.772 1109.63 669.889H1069.2ZM1066.2 632.779C1066.2 634.436 1067.54 635.779 1069.2 635.779H1109.63C1116.78 635.779 1123.16 634.724 1128.79 632.614C1134.42 630.387 1139.22 627.34 1143.21 623.472C1147.19 619.603 1150.24 614.973 1152.35 609.582C1154.46 604.19 1155.52 598.329 1155.52 591.999C1155.52 585.318 1154.46 579.164 1152.35 573.538C1150.24 567.911 1147.19 563.106 1143.21 559.12C1139.22 555.018 1134.42 551.853 1128.79 549.626C1123.16 547.399 1116.78 546.227 1109.63 546.109H1069.2C1067.54 546.109 1066.2 547.453 1066.2 549.109V632.779Z" fill="white"/>
<path d="M1446.64 656.526C1446.64 671.647 1444.71 686.182 1440.84 700.13C1436.97 713.962 1431.17 726.211 1423.43 736.877C1415.82 747.427 1406.2 755.866 1394.6 762.196C1383.11 768.408 1369.63 771.514 1354.16 771.514C1338.81 771.514 1325.44 768.35 1314.07 762.02C1302.7 755.69 1293.21 747.251 1285.59 736.702C1278.09 726.035 1272.4 713.786 1268.53 699.955C1264.78 686.123 1262.91 671.647 1262.91 656.526V623.823C1262.91 613.743 1263.73 603.897 1265.37 594.285C1267.13 584.673 1269.65 575.648 1272.93 567.208C1276.33 558.651 1280.49 550.798 1285.41 543.648C1290.45 536.381 1296.31 530.168 1303 525.011C1309.79 519.853 1317.41 515.809 1325.85 512.879C1334.41 509.948 1343.79 508.483 1353.98 508.483C1369.46 508.483 1382.94 511.648 1394.42 517.978C1406.03 524.307 1415.7 532.805 1423.43 543.472C1431.17 554.021 1436.97 566.27 1440.84 580.219C1444.71 594.168 1446.64 608.702 1446.64 623.823V656.526ZM1404.27 623.472C1404.15 613.86 1403.27 604.307 1401.63 594.812C1399.99 585.318 1397.24 576.878 1393.37 569.494C1389.5 561.992 1384.34 555.955 1377.9 551.384C1371.57 546.695 1363.6 544.351 1353.98 544.351C1344.49 544.351 1336.58 546.695 1330.25 551.384C1324.04 555.955 1319.05 561.992 1315.3 569.494C1311.67 576.996 1309.09 585.494 1307.57 594.988C1306.16 604.365 1305.4 613.86 1305.28 623.472V656.526C1305.4 666.138 1306.22 675.691 1307.74 685.185C1309.27 694.563 1311.85 703.061 1315.48 710.68C1319.23 718.182 1324.21 724.277 1330.42 728.965C1336.75 733.654 1344.67 735.998 1354.16 735.998C1363.77 735.998 1371.74 733.654 1378.07 728.965C1384.52 724.277 1389.68 718.182 1393.54 710.68C1397.41 703.178 1400.11 694.68 1401.63 685.185C1403.27 675.691 1404.15 666.138 1404.27 656.526V623.472Z" fill="white"/>
<path d="M1571.62 730.537C1571.62 732.194 1572.96 733.537 1574.62 733.537H1688.64C1691.4 733.537 1693.64 735.775 1693.64 738.537V762.998C1693.64 765.759 1691.4 767.998 1688.64 767.998H1534.42C1531.66 767.998 1529.42 765.759 1529.42 762.998V517C1529.42 514.238 1531.66 512 1534.42 512H1566.62C1569.38 512 1571.62 514.238 1571.62 517V730.537Z" fill="white"/>
<path d="M1783.27 517C1783.27 514.238 1785.51 512 1788.27 512H1930.54C1933.3 512 1935.54 514.238 1935.54 517V541.989C1935.54 544.75 1933.3 546.989 1930.54 546.989H1883.15C1881.5 546.989 1880.15 548.332 1880.15 549.989V730.185C1880.15 731.842 1881.5 733.185 1883.15 733.185H1930.54C1933.3 733.185 1935.54 735.424 1935.54 738.185V762.998C1935.54 765.759 1933.3 767.998 1930.54 767.998H1788.27C1785.51 767.998 1783.27 765.759 1783.27 762.998V738.185C1783.27 735.424 1785.51 733.185 1788.27 733.185H1834.43C1836.08 733.185 1837.43 731.842 1837.43 730.185V549.989C1837.43 548.332 1836.08 546.989 1834.43 546.989H1788.27C1785.51 546.989 1783.27 544.75 1783.27 541.989V517Z" fill="white"/>
<path d="M2211.19 541.813C2211.19 544.574 2208.95 546.813 2206.19 546.813H2135.6C2133.94 546.813 2132.6 548.156 2132.6 549.813V762.998C2132.6 765.759 2130.36 767.998 2127.6 767.998H2095.58C2092.82 767.998 2090.58 765.759 2090.58 762.998V549.813C2090.58 548.156 2089.23 546.813 2087.58 546.813H2017.51C2014.75 546.813 2012.51 544.574 2012.51 541.813V517C2012.51 514.238 2014.75 512 2017.51 512H2206.19C2208.95 512 2211.19 514.238 2211.19 517V541.813Z" fill="white"/>
<path d="M2287.82 517C2287.82 514.238 2290.05 512 2292.82 512H2435.08C2437.84 512 2440.08 514.238 2440.08 517V541.989C2440.08 544.75 2437.84 546.989 2435.08 546.989H2387.69C2386.04 546.989 2384.69 548.332 2384.69 549.989V730.185C2384.69 731.842 2386.04 733.185 2387.69 733.185H2435.08C2437.84 733.185 2440.08 735.424 2440.08 738.185V762.998C2440.08 765.759 2437.84 767.998 2435.08 767.998H2292.82C2290.05 767.998 2287.82 765.759 2287.82 762.998V738.185C2287.82 735.424 2290.05 733.185 2292.82 733.185H2338.97C2340.63 733.185 2341.97 731.842 2341.97 730.185V549.989C2341.97 548.332 2340.63 546.989 2338.97 546.989H2292.82C2290.05 546.989 2287.82 544.75 2287.82 541.989V517Z" fill="white"/>
<path d="M2697.89 689.405C2700.25 689.405 2702.11 691.438 2701.8 693.776C2700.4 704.39 2697.63 714.185 2693.5 723.163C2688.81 733.244 2682.6 741.918 2674.86 749.185C2667.13 756.335 2657.99 761.903 2647.44 765.888C2637 769.756 2625.34 771.69 2612.45 771.69C2596.86 771.69 2583.26 768.701 2571.66 762.723C2560.05 756.628 2550.38 748.423 2542.65 738.108C2534.91 727.793 2529.11 715.72 2525.24 701.889C2521.37 688.057 2519.38 673.288 2519.26 657.581V622.592C2519.38 607.003 2521.43 592.292 2525.42 578.461C2529.4 564.512 2535.26 552.38 2543 542.065C2550.85 531.633 2560.58 523.428 2572.18 517.45C2583.79 511.355 2597.27 508.307 2612.62 508.307C2626.1 508.307 2638.12 510.3 2648.67 514.285C2659.22 518.271 2668.24 523.897 2675.74 531.164C2683.25 538.432 2689.22 547.282 2693.68 557.714C2697.62 566.937 2700.32 577.076 2701.78 588.132C2702.09 590.479 2700.24 592.527 2697.87 592.527H2665.56C2662.46 592.527 2659.9 590.165 2659.44 587.103C2658.62 581.714 2657.38 576.723 2655.7 572.131C2653.59 565.919 2650.66 560.644 2646.91 556.307C2643.16 551.853 2638.41 548.454 2632.67 546.109C2627.04 543.765 2620.36 542.593 2612.62 542.593C2603.13 542.593 2595.16 544.761 2588.71 549.098C2582.26 553.435 2577.05 559.296 2573.06 566.681C2569.08 573.948 2566.21 582.388 2564.45 591.999C2562.81 601.611 2561.99 611.691 2561.99 622.241V657.581C2561.99 668.599 2562.81 678.973 2564.45 688.702C2566.21 698.314 2569.02 706.753 2572.89 714.02C2576.76 721.288 2581.91 727.031 2588.36 731.251C2594.81 735.471 2602.84 737.581 2612.45 737.581C2627.22 737.581 2638.47 733.42 2646.21 725.097C2653 717.682 2657.36 707.597 2659.27 694.842C2659.73 691.775 2662.29 689.405 2665.4 689.405H2697.89Z" fill="white"/>
<path d="M2894.11 712.899C2893.37 710.334 2891.02 708.57 2888.35 708.57H2817.34C2814.68 708.57 2812.34 710.319 2811.59 712.868L2796.55 763.7C2795.79 766.249 2793.45 767.998 2790.79 767.998H2755.8C2753.76 767.998 2752.32 766.009 2752.95 764.071L2833.49 516.146C2834.29 513.674 2836.6 512 2839.2 512H2867.55C2870.16 512 2872.47 513.689 2873.27 516.178L2952.27 764.087C2952.89 766.022 2951.44 767.998 2949.41 767.998H2914.6C2911.93 767.998 2909.58 766.233 2908.83 763.669L2894.11 712.899ZM2824.72 668.675C2824.15 670.597 2825.6 672.526 2827.6 672.526H2878.32C2880.32 672.526 2881.76 670.612 2881.2 668.693L2855.2 578.701C2854.64 576.781 2851.92 576.772 2851.36 578.688L2824.72 668.675Z" fill="white"/>
<path d="M3329.63 669.889C3327.98 669.889 3326.63 671.232 3326.63 672.889V762.998C3326.63 765.759 3324.39 767.998 3321.63 767.998H3289.44C3286.67 767.998 3284.44 765.759 3284.44 762.998V517C3284.44 514.238 3286.67 512 3289.44 512H3370.06C3382.84 512.117 3394.62 514.051 3405.4 517.802C3416.3 521.436 3425.68 526.71 3433.53 533.626C3441.39 540.424 3447.48 548.747 3451.82 558.593C3456.27 568.322 3458.5 579.34 3458.5 591.648C3458.5 603.604 3456.27 614.387 3451.82 623.999C3447.48 633.611 3441.39 641.816 3433.53 648.614C3425.68 655.413 3416.3 660.629 3405.4 664.262C3394.62 667.896 3382.84 669.772 3370.06 669.889H3329.63ZM3326.63 632.779C3326.63 634.436 3327.98 635.779 3329.63 635.779H3370.06C3377.21 635.779 3383.6 634.724 3389.23 632.614C3394.85 630.387 3399.66 627.34 3403.64 623.472C3407.63 619.603 3410.68 614.973 3412.79 609.582C3414.9 604.19 3415.95 598.329 3415.95 591.999C3415.95 585.318 3414.9 579.164 3412.79 573.538C3410.68 567.911 3407.63 563.106 3403.64 559.12C3399.66 555.018 3394.85 551.853 3389.23 549.626C3383.6 547.399 3377.21 546.227 3370.06 546.109H3329.63C3327.98 546.109 3326.63 547.453 3326.63 549.109V632.779Z" fill="white"/>
<path d="M3631.92 712.899C3631.18 710.334 3628.83 708.57 3626.16 708.57H3555.15C3552.49 708.57 3550.15 710.319 3549.4 712.868L3534.36 763.7C3533.6 766.249 3531.26 767.998 3528.6 767.998H3493.61C3491.57 767.998 3490.13 766.009 3490.76 764.071L3571.3 516.146C3572.1 513.674 3574.4 512 3577 512H3605.36C3607.97 512 3610.28 513.689 3611.07 516.178L3690.08 764.087C3690.7 766.022 3689.25 767.998 3687.22 767.998H3652.4C3649.73 767.998 3647.39 766.233 3646.64 763.669L3631.92 712.899ZM3562.53 668.675C3561.96 670.597 3563.4 672.526 3565.41 672.526H3616.13C3618.12 672.526 3619.56 670.612 3619.01 668.693L3593 578.701C3592.45 576.781 3589.73 576.772 3589.17 578.688L3562.53 668.675Z" fill="white"/>
<path d="M3846.25 671.501C3845.25 669.439 3843.15 668.131 3840.86 668.131H3804.71C3803.05 668.131 3801.71 669.474 3801.71 671.131V762.998C3801.71 765.759 3799.47 767.998 3796.71 767.998H3764.51C3761.75 767.998 3759.51 765.759 3759.51 762.998V517C3759.51 514.238 3761.75 512 3764.51 512H3840.39C3853.52 512.117 3865.59 513.817 3876.61 517.099C3887.74 520.263 3897.35 525.069 3905.44 531.516C3913.53 537.846 3919.8 545.816 3924.26 555.428C3928.71 565.04 3930.94 576.292 3930.94 589.186C3930.94 597.86 3929.76 605.772 3927.42 612.922C3925.19 619.955 3922.03 626.343 3917.93 632.087C3913.82 637.83 3908.9 642.871 3903.16 647.208C3898.22 650.937 3892.85 654.19 3887.04 656.966C3885.49 657.707 3884.82 659.572 3885.59 661.106L3937.25 763.648C3938.25 765.644 3936.8 767.998 3934.57 767.998H3898.31C3895.25 767.998 3892.46 766.254 3891.12 763.505L3846.25 671.501ZM3801.71 631.021C3801.71 632.678 3803.05 634.021 3804.71 634.021H3840.56C3847.6 634.021 3854.04 633.025 3859.9 631.032C3865.77 629.039 3870.81 626.226 3875.03 622.592C3879.36 618.842 3882.7 614.329 3885.05 609.054C3887.39 603.662 3888.56 597.508 3888.56 590.593C3888.56 583.442 3887.45 577.113 3885.22 571.604C3883 566.095 3879.77 561.465 3875.55 557.714C3871.45 553.963 3866.41 551.15 3860.43 549.274C3854.45 547.282 3847.77 546.227 3840.39 546.109H3804.71C3803.05 546.109 3801.71 547.453 3801.71 549.109V631.021Z" fill="white"/>
<path d="M4136.46 712.899C4135.72 710.334 4133.37 708.57 4130.7 708.57H4059.69C4057.03 708.57 4054.69 710.319 4053.94 712.868L4038.9 763.7C4038.14 766.249 4035.8 767.998 4033.14 767.998H3998.15C3996.11 767.998 3994.67 766.009 3995.3 764.071L4075.84 516.146C4076.64 513.674 4078.95 512 4081.55 512H4109.9C4112.51 512 4114.82 513.689 4115.62 516.178L4194.62 764.087C4195.24 766.022 4193.79 767.998 4191.76 767.998H4156.95C4154.28 767.998 4151.93 766.233 4151.18 763.669L4136.46 712.899ZM4067.07 668.675C4066.5 670.597 4067.95 672.526 4069.95 672.526H4120.67C4122.67 672.526 4124.11 670.612 4123.55 668.693L4097.55 578.701C4096.99 576.781 4094.27 576.772 4093.71 578.688L4067.07 668.675Z" fill="white"/>
<path d="M4697.89 541.813C4697.89 544.574 4695.65 546.813 4692.89 546.813H4622.3C4620.64 546.813 4619.3 548.156 4619.3 549.813V762.998C4619.3 765.759 4617.06 767.998 4614.3 767.998H4582.28C4579.52 767.998 4577.28 765.759 4577.28 762.998V549.813C4577.28 548.156 4575.93 546.813 4574.28 546.813H4504.21C4501.45 546.813 4499.21 544.574 4499.21 541.813V517C4499.21 514.238 4501.45 512 4504.21 512H4692.89C4695.65 512 4697.89 514.238 4697.89 517V541.813Z" fill="white"/>
<path d="M4937.43 656.526C4937.43 671.647 4935.49 686.182 4931.62 700.13C4927.76 713.962 4921.95 726.211 4914.22 736.877C4906.6 747.427 4896.99 755.866 4885.38 762.196C4873.9 768.408 4860.42 771.514 4844.94 771.514C4829.59 771.514 4816.23 768.35 4804.86 762.02C4793.49 755.69 4783.99 747.251 4776.37 736.702C4768.87 726.035 4763.19 713.786 4759.32 699.955C4755.57 686.123 4753.69 671.647 4753.69 656.526V623.823C4753.69 613.743 4754.51 603.897 4756.15 594.285C4757.91 584.673 4760.43 575.648 4763.71 567.208C4767.11 558.651 4771.27 550.798 4776.2 543.648C4781.24 536.381 4787.1 530.168 4793.78 525.011C4800.58 519.853 4808.2 515.809 4816.64 512.879C4825.19 509.948 4834.57 508.483 4844.77 508.483C4860.24 508.483 4873.72 511.648 4885.21 517.978C4896.81 524.307 4906.48 532.805 4914.22 543.472C4921.95 554.021 4927.76 566.27 4931.62 580.219C4935.49 594.168 4937.43 608.702 4937.43 623.823V656.526ZM4895.05 623.472C4894.94 613.86 4894.06 604.307 4892.42 594.812C4890.77 585.318 4888.02 576.878 4884.15 569.494C4880.28 561.992 4875.13 555.955 4868.68 551.384C4862.35 546.695 4854.38 544.351 4844.77 544.351C4835.27 544.351 4827.36 546.695 4821.03 551.384C4814.82 555.955 4809.84 561.992 4806.09 569.494C4802.45 576.996 4799.87 585.494 4798.35 594.988C4796.94 604.365 4796.18 613.86 4796.06 623.472V656.526C4796.18 666.138 4797 675.691 4798.53 685.185C4800.05 694.563 4802.63 703.061 4806.26 710.68C4810.01 718.182 4814.99 724.277 4821.21 728.965C4827.54 733.654 4835.45 735.998 4844.94 735.998C4854.56 735.998 4862.53 733.654 4868.86 728.965C4875.3 724.277 4880.46 718.182 4884.33 710.68C4888.2 703.178 4890.89 694.68 4892.42 685.185C4894.06 675.691 4894.94 666.138 4895.05 656.526V623.472Z" fill="white"/>
<path d="M5020.05 767.998C5016.74 767.998 5014.05 765.312 5014.05 761.998V518C5014.05 514.686 5016.74 512 5020.05 512H5076.64C5094.23 512.117 5109.99 515.047 5123.94 520.791C5138 526.534 5149.9 534.622 5159.63 545.054C5169.48 555.487 5177.04 567.97 5182.31 582.505C5187.59 596.922 5190.28 612.922 5190.4 630.504V649.845C5190.28 667.427 5187.59 683.486 5182.31 698.02C5177.04 712.438 5169.54 724.863 5159.81 735.295C5150.08 745.61 5138.3 753.639 5124.47 759.383C5110.64 765.126 5095.1 767.998 5077.87 767.998H5020.05ZM5059.95 546.109C5058.29 546.109 5056.95 547.453 5056.95 549.109V731.064C5056.95 732.721 5058.29 734.064 5059.95 734.064H5077.87C5089.48 733.947 5099.62 731.896 5108.29 727.91C5116.96 723.808 5124.17 718.123 5129.92 710.856C5135.78 703.471 5140.12 694.621 5142.93 684.306C5145.86 673.991 5147.38 662.504 5147.5 649.845V630.153C5147.38 617.845 5145.86 606.593 5142.93 596.395C5140.12 586.197 5135.78 577.406 5129.92 570.021C5124.06 562.52 5116.67 556.717 5107.76 552.615C5098.97 548.395 5088.6 546.227 5076.64 546.109H5059.95Z" fill="white"/>
<path d="M5441.97 656.526C5441.97 671.647 5440.03 686.182 5436.17 700.13C5432.3 713.962 5426.5 726.211 5418.76 736.877C5411.14 747.427 5401.53 755.866 5389.92 762.196C5378.44 768.408 5364.96 771.514 5349.48 771.514C5334.13 771.514 5320.77 768.35 5309.4 762.02C5298.03 755.69 5288.53 747.251 5280.91 736.702C5273.41 726.035 5267.73 713.786 5263.86 699.955C5260.11 686.123 5258.23 671.647 5258.23 656.526V623.823C5258.23 613.743 5259.05 603.897 5260.69 594.285C5262.45 584.673 5264.97 575.648 5268.25 567.208C5271.65 558.651 5275.82 550.798 5280.74 543.648C5285.78 536.381 5291.64 530.168 5298.32 525.011C5305.12 519.853 5312.74 515.809 5321.18 512.879C5329.73 509.948 5339.11 508.483 5349.31 508.483C5364.78 508.483 5378.26 511.648 5389.75 517.978C5401.35 524.307 5411.02 532.805 5418.76 543.472C5426.5 554.021 5432.3 566.27 5436.17 580.219C5440.03 594.168 5441.97 608.702 5441.97 623.823V656.526ZM5399.59 623.472C5399.48 613.86 5398.6 604.307 5396.96 594.812C5395.32 585.318 5392.56 576.878 5388.69 569.494C5384.83 561.992 5379.67 555.955 5373.22 551.384C5366.89 546.695 5358.92 544.351 5349.31 544.351C5339.81 544.351 5331.9 546.695 5325.57 551.384C5319.36 555.955 5314.38 561.992 5310.63 569.494C5306.99 576.996 5304.42 585.494 5302.89 594.988C5301.49 604.365 5300.72 613.86 5300.61 623.472V656.526C5300.72 666.138 5301.54 675.691 5303.07 685.185C5304.59 694.563 5307.17 703.061 5310.8 710.68C5314.56 718.182 5319.54 724.277 5325.75 728.965C5332.08 733.654 5339.99 735.998 5349.48 735.998C5359.1 735.998 5367.07 733.654 5373.4 728.965C5379.84 724.277 5385 718.182 5388.87 710.68C5392.74 703.178 5395.43 694.68 5396.96 685.185C5398.6 675.691 5399.48 666.138 5399.59 656.526V623.472Z" fill="white"/>
<path d="M5653.62 702.064C5653.62 695.969 5652.33 690.636 5649.76 686.065C5647.29 681.376 5643.72 677.273 5639.03 673.757C5634.46 670.24 5628.95 667.193 5622.5 664.614C5616.17 661.918 5609.26 659.457 5601.76 657.23C5591.68 654.299 5581.71 650.665 5571.87 646.329C5562.14 641.992 5553.4 636.717 5545.67 630.504C5538.05 624.175 5531.84 616.849 5527.03 608.527C5522.34 600.087 5520 590.358 5520 579.34C5520 568.322 5522.34 558.476 5527.03 549.802C5531.84 541.011 5538.23 533.567 5546.2 527.472C5554.17 521.377 5563.43 516.688 5573.98 513.406C5584.53 510.124 5595.54 508.483 5607.03 508.483C5619.34 508.483 5630.83 510.417 5641.49 514.285C5652.28 518.036 5661.65 523.37 5669.62 530.285C5677.71 537.084 5684.1 545.289 5688.79 554.901C5692.79 563 5695.12 571.867 5695.8 581.502C5695.99 584.276 5693.73 586.549 5690.95 586.549H5659.28C5656.18 586.549 5653.62 584.175 5653.09 581.117C5652.33 576.77 5651.16 572.72 5649.58 568.966C5647.47 563.574 5644.42 558.944 5640.44 555.076C5636.57 551.208 5631.82 548.219 5626.2 546.109C5620.57 544 5614.06 542.945 5606.68 542.945C5600.35 542.945 5594.49 543.765 5589.1 545.406C5583.7 547.047 5579.02 549.45 5575.03 552.615C5571.16 555.78 5568.11 559.589 5565.89 564.043C5563.66 568.498 5562.55 573.538 5562.55 579.164C5562.55 585.142 5564.07 590.358 5567.12 594.812C5570.17 599.149 5574.15 602.959 5579.07 606.241C5584 609.523 5589.62 612.395 5595.95 614.856C5602.4 617.201 5609.08 619.369 5616 621.362C5626.66 624.526 5636.86 628.453 5646.59 633.142C5656.32 637.713 5664.88 643.281 5672.26 649.845C5679.65 656.292 5685.51 663.794 5689.84 672.35C5694.18 680.907 5696.35 690.695 5696.35 701.713C5696.35 713.083 5693.95 723.105 5689.14 731.778C5684.33 740.452 5677.89 747.72 5669.8 753.581C5661.71 759.441 5652.33 763.895 5641.67 766.943C5631 769.873 5619.87 771.339 5608.26 771.339C5600.41 771.339 5592.61 770.577 5584.88 769.053C5577.14 767.529 5569.7 765.243 5562.55 762.196C5555.51 759.148 5548.95 755.397 5542.85 750.943C5536.76 746.372 5531.43 741.156 5526.86 735.295C5522.4 729.317 5518.88 722.694 5516.31 715.427C5514.23 709.482 5512.95 703.082 5512.47 696.226C5512.28 693.445 5514.54 691.163 5517.33 691.163H5549.07C5552.21 691.163 5554.78 693.588 5555.27 696.689C5556.12 702.153 5557.61 707.052 5559.73 711.383C5562.55 717.127 5566.3 721.932 5570.99 725.801C5575.68 729.551 5581.13 732.423 5587.34 734.416C5593.67 736.291 5600.64 737.229 5608.26 737.229C5614.59 737.229 5620.51 736.467 5626.02 734.943C5631.53 733.419 5636.33 731.192 5640.44 728.262C5644.54 725.214 5647.76 721.522 5650.11 717.185C5652.45 712.731 5653.62 707.691 5653.62 702.064Z" fill="white"/>
<path d="M1931.04 393.495L1840.43 445.762C1838.57 446.834 1837.43 448.815 1837.43 450.96V477.289C1837.43 479.598 1839.93 481.041 1841.93 479.888L1932.54 427.622C1934.4 426.55 1935.54 424.569 1935.54 422.424V396.094C1935.54 393.785 1933.04 392.342 1931.04 393.495Z" fill="white"/>
<path d="M619.21 517V762.998C619.21 765.759 621.449 767.998 624.21 767.998H656.352C659.113 767.998 661.352 765.759 661.352 762.998V517C661.352 514.238 659.113 512 656.352 512H624.21C621.449 512 619.21 514.238 619.21 517Z" fill="white"/>
<path d="M736.121 560.23L523.37 683.224C520.979 684.606 520.159 687.666 521.539 690.058L537.614 717.939C538.994 720.331 542.05 721.15 544.441 719.768L757.192 596.774C759.583 595.392 760.402 592.332 759.023 589.94L742.947 562.059C741.568 559.667 738.512 558.848 736.121 560.23Z" fill="white"/>
<path d="M757.192 683.224L544.441 560.23C542.05 558.848 538.994 559.667 537.615 562.059L521.539 589.94C520.16 592.332 520.979 595.392 523.37 596.774L736.121 719.768C738.512 721.15 741.568 720.331 742.948 717.939L759.023 690.058C760.403 687.666 759.583 684.606 757.192 683.224Z" fill="white"/>
</svg>
