<svg width="521" height="220" viewBox="0 0 521 220" fill="none" xmlns="http://www.w3.org/2000/svg">
<g clip-path="url(#clip0)">
<path d="M439.427 119.581C440.311 119.581 441.026 118.865 441.026 117.981C441.026 117.098 440.311 116.382 439.427 116.382H433.029C430.379 116.382 428.231 114.233 428.231 111.583V69.9973C428.231 67.3474 430.379 65.1989 433.029 65.1989H500.207C502.857 65.1989 505.005 67.3474 505.005 69.9973V111.583C505.005 114.233 502.857 116.382 500.207 116.382C499.323 116.382 498.607 117.098 498.607 117.981C498.607 118.865 499.323 119.581 500.207 119.581C504.621 119.575 508.199 115.998 508.204 111.583V69.9973C508.199 65.5824 504.621 62.0055 500.207 62H433.029C428.615 62.0055 425.037 65.5824 425.032 69.9973V111.583C425.037 115.998 428.615 119.575 433.029 119.581H439.427Z" fill="#666666"/>
<path d="M476.215 101.987C476.215 99.3368 474.067 97.1883 471.416 97.1883H463.419C462.536 97.1883 461.819 97.9044 461.819 98.7877C461.819 99.671 462.536 100.387 463.419 100.387H471.416C472.3 100.387 473.016 101.103 473.016 101.987C473.016 102.87 472.3 103.586 471.416 103.586H463.419C462.536 103.586 461.819 104.302 461.819 105.186C461.819 106.069 462.536 106.785 463.419 106.785H471.416C474.067 106.785 476.215 104.637 476.215 101.987Z" fill="#666666"/>
<path d="M463.419 109.984C462.536 109.984 461.819 110.7 461.819 111.583C461.819 112.467 462.536 113.183 463.419 113.183H469.817C470.701 113.183 471.416 112.467 471.416 111.583C471.416 110.7 470.701 109.984 469.817 109.984H463.419Z" fill="#666666"/>
<path d="M498.607 73.1963C498.607 72.313 497.892 71.5968 497.008 71.5968H473.016C472.132 71.5968 471.416 72.313 471.416 73.1963C471.416 74.0796 472.132 74.7957 473.016 74.7957H497.008C497.892 74.7957 498.607 74.0796 498.607 73.1963Z" fill="#666666"/>
<path d="M490.61 82.793H497.008C497.892 82.793 498.607 82.0769 498.607 81.1936C498.607 80.3103 497.892 79.5941 497.008 79.5941H490.61C489.726 79.5941 489.01 80.3103 489.01 81.1936C489.01 82.0769 489.726 82.793 490.61 82.793Z" fill="#666666"/>
<path d="M493.809 90.7904H497.008C497.892 90.7904 498.607 90.0742 498.607 89.1909C498.607 88.3076 497.892 87.5915 497.008 87.5915H493.809C492.925 87.5915 492.209 88.3076 492.209 89.1909C492.209 90.0742 492.925 90.7904 493.809 90.7904Z" fill="#666666"/>
<path d="M463.419 73.1963C463.419 72.313 462.703 71.5968 461.819 71.5968H445.825C444.941 71.5968 444.225 72.313 444.225 73.1963C444.225 74.0796 444.941 74.7957 445.825 74.7957H461.819C462.703 74.7957 463.419 74.0796 463.419 73.1963Z" fill="#666666"/>
<path d="M450.623 81.1936C450.623 80.3103 449.908 79.5941 449.024 79.5941H436.228C435.345 79.5941 434.628 80.3103 434.628 81.1936C434.628 82.0769 435.345 82.793 436.228 82.793H449.024C449.908 82.793 450.623 82.0769 450.623 81.1936Z" fill="#666666"/>
<path d="M442.626 89.1909C442.626 88.3076 441.91 87.5915 441.026 87.5915H436.228C435.345 87.5915 434.628 88.3076 434.628 89.1909C434.628 90.0742 435.345 90.7904 436.228 90.7904H441.026C441.91 90.7904 442.626 90.0742 442.626 89.1909Z" fill="#666666"/>
<path d="M437.827 108.385C437.827 109.268 437.112 109.984 436.228 109.984C435.345 109.984 434.628 109.268 434.628 108.385C434.628 107.501 435.345 106.785 436.228 106.785C437.112 106.785 437.827 107.501 437.827 108.385Z" fill="#666666"/>
<path d="M437.827 100.387C437.827 101.271 437.112 101.987 436.228 101.987C435.345 101.987 434.628 101.271 434.628 100.387C434.628 99.5039 435.345 98.7878 436.228 98.7878C437.112 98.7878 437.827 99.5039 437.827 100.387Z" fill="#666666"/>
<path d="M453.8 132.644C453.888 132.123 453.713 131.594 453.334 131.228C452.955 130.861 452.419 130.705 451.903 130.811L443.322 132.583C442.565 132.446 441.796 132.377 441.026 132.377C435.326 132.368 430.306 136.128 428.709 141.6C427.112 147.072 429.323 152.942 434.134 156C438.945 159.058 445.198 158.57 449.476 154.802C453.754 151.034 455.027 144.893 452.601 139.734L453.8 132.644ZM441.026 154.769C437.36 154.77 434.014 152.681 432.404 149.387C430.794 146.093 431.201 142.17 433.453 139.277C435.705 136.384 439.409 135.027 442.997 135.78C443.212 135.826 443.435 135.826 443.65 135.78L450.255 134.414L449.36 139.704C449.301 140.049 449.357 140.404 449.52 140.714C450.247 142.087 450.626 143.618 450.623 145.172C450.618 150.471 446.325 154.764 441.026 154.769Z" fill="#666666"/>
<path d="M444.225 145.172H436.228C435.345 145.172 434.628 145.888 434.628 146.772C434.628 147.655 435.345 148.371 436.228 148.371H444.225C445.109 148.371 445.825 147.655 445.825 146.772C445.825 145.888 445.109 145.172 444.225 145.172Z" fill="#666666"/>
<path d="M442.626 140.374C442.626 141.257 441.91 141.973 441.026 141.973C440.143 141.973 439.427 141.257 439.427 140.374C439.427 139.491 440.143 138.774 441.026 138.774C441.91 138.774 442.626 139.491 442.626 140.374Z" fill="#666666"/>
<path d="M485.469 97.8443C485.13 97.0282 484.194 96.6416 483.378 96.9813C482.562 97.3202 482.176 98.2567 482.516 99.0728C485.495 106.174 482.997 114.391 476.568 118.632C470.138 122.873 461.601 121.935 456.245 116.401C450.89 110.867 450.234 102.303 454.683 96.0168C459.134 89.7306 467.428 87.5032 474.428 90.7154C475.226 91.0559 476.15 90.6982 476.511 89.9094C476.871 89.1214 476.538 88.1881 475.759 87.807C467.375 83.9708 457.448 86.6441 452.125 94.1713C446.802 101.698 447.589 111.949 453.999 118.575C460.41 125.202 470.629 126.327 478.328 121.255C486.028 116.183 489.027 106.35 485.469 97.8443Z" fill="#666666"/>
<path d="M518.657 142.055L507.349 130.743C505 128.41 501.457 127.764 498.436 129.12L493.569 124.254C494.462 122.428 494.091 120.235 492.645 118.805L490.6 116.761C496.279 105.53 492.96 91.8377 482.77 84.4527C472.58 77.0668 458.535 78.1759 449.629 87.0674C440.723 95.9598 439.593 110.003 446.963 120.204C454.332 130.406 468.019 133.746 479.259 128.085L481.312 130.137C482.751 131.59 484.959 131.955 486.789 131.043L491.879 136.134C490.909 139 491.644 142.169 493.777 144.315L503.976 154.511L505.081 155.616C508.203 158.739 513.265 158.739 516.389 155.616L518.65 153.355C521.772 150.232 521.772 145.17 518.65 142.047L518.657 142.055ZM451.93 121.067C444.376 113.513 443.209 101.675 449.144 92.7921C455.079 83.9099 466.462 80.4556 476.331 84.5433C486.201 88.631 491.809 99.1212 489.726 109.599C487.643 120.077 478.448 127.623 467.765 127.624C461.822 127.641 456.12 125.28 451.93 121.067ZM483.572 127.877L482.113 126.418C484.797 124.603 487.109 122.293 488.928 119.613L490.382 121.067C491.006 121.691 491.006 122.704 490.382 123.328L485.834 127.877C485.201 128.479 484.206 128.479 483.572 127.877ZM489.251 128.984L491.513 126.721L495.786 130.995L493.777 133.007C493.691 133.091 493.631 133.194 493.55 133.283L489.251 128.984ZM516.393 151.102L514.132 153.363C512.233 155.175 509.246 155.175 507.347 153.363L507.323 153.339L512.556 147.878C513.168 147.241 513.146 146.228 512.509 145.617C511.871 145.006 510.858 145.027 510.247 145.665L505.06 151.076L496.037 142.055C494.162 140.181 494.162 137.142 496.037 135.269L498.299 133.007C500.173 131.132 503.211 131.132 505.085 133.007L516.393 144.316C518.267 146.191 518.267 149.228 516.393 151.102Z" fill="#666666"/>
</g>
<path d="M365 110L165.5 205.263L165.5 14.7372L365 110Z" fill="#EEEEEE"/>
<circle cx="110" cy="110" r="109.5" fill="#FAFAFA" stroke="#EEEEEE"/>
<path d="M148.906 83.7544L141.336 51.581V30.0605C141.336 29.3745 140.781 28.8185 140.094 28.8185H135.981L135.073 24.9579C134.916 24.2901 134.247 23.8765 133.579 24.0333L113.24 28.8184H93.2907C92.6046 28.8184 92.0487 29.3745 92.0487 30.0604V33.8041L88.0184 34.7523C87.6977 34.8278 87.4202 35.0275 87.2468 35.3076C87.0734 35.5878 87.0185 35.9251 87.0938 36.2457L92.0487 57.3064V90.4618C92.0487 91.1477 92.6046 91.7038 93.2907 91.7038H100.141L100.927 95.0422C101.002 95.3628 101.202 95.6404 101.482 95.8138C101.68 95.9363 101.907 95.9997 102.136 95.9997C102.231 95.9997 102.326 95.9887 102.421 95.9668L120.54 91.7038H140.095C140.781 91.7038 141.337 91.1476 141.337 90.4618V86.8111L147.981 85.2478C148.649 85.0907 149.063 84.4221 148.906 83.7544ZM138.852 31.3025V41.0225L136.566 31.3025H138.852ZM94.5327 31.3025H102.682L94.5327 33.2198V31.3025ZM94.5327 89.2199V67.8651L99.5568 89.2199H94.5327ZM138.852 89.2199H131.099L138.852 87.3957V89.2199ZM103.06 93.2644L89.7964 36.8859L132.939 26.7357L146.203 83.1141L103.06 93.2644Z" fill="#666666"/>
<path d="M111.487 56.8953L110.321 51.9381C109.949 50.3558 108.983 49.013 107.6 48.1572C107.334 47.9926 107.059 47.8503 106.776 47.7295C106.951 47.5149 107.115 47.2888 107.263 47.0495C108.154 45.6094 108.432 43.9083 108.044 42.2597C107.243 38.8563 103.824 36.7389 100.419 37.5395C98.7709 37.9274 97.3719 38.9341 96.4802 40.3742C95.5887 41.8144 95.3113 43.5155 95.6991 45.1642C96.1687 47.1598 97.5388 48.7126 99.2779 49.495C98.0623 50.92 97.5152 52.8838 97.976 54.8424L99.1423 59.7996C99.2769 60.3716 99.7871 60.7575 100.35 60.7575C100.445 60.7575 100.54 60.7467 100.636 60.7242L110.562 58.3888C110.883 58.3135 111.161 58.1138 111.334 57.8338C111.508 57.5535 111.563 57.216 111.487 56.8953ZM98.1174 44.5952C97.8815 43.5924 98.0502 42.5577 98.5925 41.6819C99.1347 40.8059 99.9858 40.1937 100.989 39.9578C101.284 39.8882 101.58 39.8549 101.872 39.8549C103.621 39.8549 105.209 41.0547 105.626 42.8288C105.862 43.8316 105.693 44.8663 105.151 45.7422C104.609 46.6178 103.758 47.2301 102.755 47.4662L102.754 47.4665C100.683 47.9528 98.6043 46.6651 98.1174 44.5952ZM101.276 58.0217L100.394 54.2736C99.9395 52.3403 101.142 50.3975 103.075 49.9428L103.572 49.8259C103.848 49.7609 104.127 49.7289 104.404 49.7289C105.065 49.7289 105.716 49.9125 106.293 50.2696C107.11 50.776 107.682 51.5706 107.903 52.5071L108.785 56.2553L101.276 58.0217Z" fill="#666666"/>
<path d="M123.872 82.3912C123.715 81.7235 123.046 81.3099 122.379 81.4666L107.234 85.0297C106.567 85.1867 106.153 85.8555 106.31 86.5232C106.444 87.0954 106.955 87.4811 107.518 87.4811C107.612 87.4811 107.708 87.4703 107.803 87.4478L122.948 83.8848C123.616 83.7277 124.029 83.059 123.872 82.3912Z" fill="#666666"/>
<path d="M139.017 73.1201C138.86 72.4522 138.19 72.0387 137.523 72.1955L105.962 79.6209C105.294 79.7781 104.88 80.4466 105.037 81.1143C105.172 81.6865 105.682 82.0722 106.245 82.0722C106.339 82.0722 106.435 82.0614 106.531 82.0389L138.092 74.6135C138.76 74.4564 139.174 73.7878 139.017 73.1201Z" fill="#666666"/>
<path d="M137.744 67.7112C137.587 67.0435 136.918 66.6298 136.251 66.7866L104.689 74.212C104.021 74.3692 103.608 75.0378 103.764 75.7055C103.899 76.2777 104.409 76.6634 104.972 76.6634C105.067 76.6634 105.162 76.6526 105.258 76.6301L136.82 69.2047C137.488 69.0476 137.902 68.3789 137.744 67.7112Z" fill="#666666"/>
<path d="M136.472 62.3025C136.315 61.6346 135.645 61.2213 134.979 61.3779L103.417 68.8033C102.749 68.9606 102.335 69.6291 102.492 70.2968C102.627 70.869 103.137 71.2547 103.7 71.2547C103.794 71.2547 103.89 71.2439 103.986 71.2214L135.547 63.796C136.215 63.6389 136.629 62.9702 136.472 62.3025Z" fill="#666666"/>
<path d="M135.199 56.8938C135.043 56.226 134.373 55.8123 133.706 55.9692L102.144 63.3946C101.476 63.5518 101.063 64.2204 101.219 64.888C101.354 65.4602 101.864 65.8458 102.427 65.8458C102.522 65.8458 102.617 65.835 102.713 65.8125L134.275 58.3871C134.943 58.2302 135.356 57.5615 135.199 56.8938Z" fill="#666666"/>
<path d="M133.233 48.5367C133.076 47.8689 132.408 47.4552 131.74 47.6121L115.068 51.5346C114.4 51.6915 113.987 52.3603 114.143 53.028C114.278 53.6002 114.788 53.9859 115.351 53.9859C115.446 53.9859 115.541 53.9751 115.637 53.9526L132.309 50.0302C132.976 49.8731 133.39 49.2046 133.233 48.5367Z" fill="#666666"/>
<path d="M131.961 43.1282C131.804 42.4604 131.135 42.0465 130.467 42.2036L113.796 46.1259C113.128 46.2828 112.714 46.9516 112.871 47.6193C113.006 48.1915 113.516 48.5772 114.079 48.5772C114.173 48.5772 114.269 48.5664 114.365 48.5439L131.036 44.6215C131.704 44.4645 132.118 43.7959 131.961 43.1282Z" fill="#666666"/>
<path d="M120.946 37.4146C120.789 36.7468 120.121 36.3334 119.453 36.49L111.944 38.2566C111.276 38.4138 110.863 39.0823 111.02 39.75C111.154 40.3222 111.664 40.7079 112.228 40.7079C112.322 40.7079 112.417 40.6971 112.513 40.6746L120.022 38.9081C120.689 38.7509 121.103 38.0823 120.946 37.4146Z" fill="#666666"/>
<path d="M99.9059 163.754L92.3364 131.581V110.06C92.3364 109.375 91.7806 108.818 91.0945 108.818H86.9812L86.073 104.958C85.9161 104.29 85.2473 103.877 84.5794 104.033L64.2402 108.818H44.2907C43.6046 108.818 43.0487 109.375 43.0487 110.06V113.804L39.0184 114.752C38.6977 114.828 38.4202 115.028 38.2468 115.308C38.0734 115.588 38.0185 115.925 38.0938 116.246L43.0487 137.306V170.462C43.0487 171.148 43.6046 171.704 44.2907 171.704H51.1414L51.9269 175.042C52.0025 175.363 52.2022 175.64 52.4823 175.814C52.6803 175.936 52.9068 176 53.136 176C53.2311 176 53.3264 175.989 53.4205 175.967L71.5403 171.704H91.0946C91.7807 171.704 92.3366 171.148 92.3366 170.462V166.811L98.9814 165.248C99.6489 165.091 100.063 164.422 99.9059 163.754ZM89.8525 111.302V121.022L87.5656 111.302H89.8525ZM45.5327 111.302H53.6815L45.5327 113.22V111.302ZM45.5327 169.22V147.865L50.5568 169.22H45.5327ZM89.8525 169.22H82.0987L89.8525 167.396V169.22ZM54.0604 173.264L40.7964 116.886L83.9393 106.736L97.2035 163.114L54.0604 173.264Z" fill="#666666"/>
<path d="M62.4873 136.895L61.321 131.938C60.9488 130.356 59.9825 129.013 58.6002 128.157C58.3343 127.993 58.0587 127.85 57.7763 127.729C57.9514 127.515 58.1148 127.289 58.263 127.05C59.1544 125.609 59.4319 123.908 59.044 122.26C58.2433 118.856 54.8236 116.739 51.4195 117.54C49.7709 117.927 48.3719 118.934 47.4802 120.374C46.5887 121.814 46.3113 123.516 46.6991 125.164C47.1687 127.16 48.5388 128.713 50.2779 129.495C49.0623 130.92 48.5152 132.884 48.976 134.842L50.1423 139.8C50.2769 140.372 50.7871 140.758 51.3503 140.758C51.4445 140.758 51.5401 140.747 51.6359 140.724L61.5625 138.389C61.8831 138.313 62.1607 138.114 62.3341 137.834C62.5077 137.554 62.5627 137.216 62.4873 136.895ZM49.1174 124.595C48.8815 123.592 49.0502 122.558 49.5925 121.682C50.1347 120.806 50.9858 120.194 51.9886 119.958C52.2845 119.888 52.5803 119.855 52.872 119.855C54.6208 119.855 56.2086 121.055 56.6261 122.829C56.8621 123.832 56.6933 124.866 56.1511 125.742C55.6088 126.618 54.758 127.23 53.7554 127.466L53.7543 127.467C51.6833 127.953 49.6043 126.665 49.1174 124.595ZM52.2762 138.022L51.3943 134.274C50.9395 132.34 52.1423 130.398 54.0755 129.943L54.5721 129.826C54.8483 129.761 55.1269 129.729 55.4037 129.729C56.0653 129.729 56.716 129.913 57.2925 130.27C58.1104 130.776 58.6825 131.571 58.9027 132.507L59.7845 136.255L52.2762 138.022Z" fill="#666666"/>
<path d="M74.8724 162.391C74.715 161.724 74.0464 161.31 73.3788 161.467L58.2344 165.03C57.5667 165.187 57.1528 165.855 57.3098 166.523C57.4444 167.095 57.9546 167.481 58.5178 167.481C58.612 167.481 58.7076 167.47 58.8034 167.448L73.9479 163.885C74.6156 163.728 75.0295 163.059 74.8724 162.391Z" fill="#666666"/>
<path d="M90.017 153.12C89.8597 152.452 89.1899 152.039 88.5235 152.195L56.9616 159.621C56.2939 159.778 55.8801 160.447 56.037 161.114C56.1716 161.687 56.6818 162.072 57.245 162.072C57.3392 162.072 57.435 162.061 57.5306 162.039L89.0924 154.614C89.7603 154.456 90.1741 153.788 90.017 153.12Z" fill="#666666"/>
<path d="M88.7444 147.711C88.5872 147.044 87.9176 146.63 87.2509 146.787L55.689 154.212C55.0214 154.369 54.6075 155.038 54.7644 155.705C54.899 156.278 55.4092 156.663 55.9724 156.663C56.0666 156.663 56.1624 156.653 56.258 156.63L87.8198 149.205C88.4877 149.048 88.9015 148.379 88.7444 147.711Z" fill="#666666"/>
<path d="M87.4721 142.303C87.3149 141.635 86.6452 141.221 85.9785 141.378L54.4167 148.803C53.749 148.961 53.3352 149.629 53.4921 150.297C53.6267 150.869 54.1369 151.255 54.7001 151.255C54.7943 151.255 54.89 151.244 54.9857 151.221L86.5475 143.796C87.2153 143.639 87.6292 142.97 87.4721 142.303Z" fill="#666666"/>
<path d="M86.1994 136.894C86.0425 136.226 85.3726 135.812 84.7059 135.969L53.1441 143.395C52.4764 143.552 52.0625 144.22 52.2195 144.888C52.354 145.46 52.8642 145.846 53.4274 145.846C53.5216 145.846 53.6174 145.835 53.713 145.813L85.2748 138.387C85.9425 138.23 86.3564 137.562 86.1994 136.894Z" fill="#666666"/>
<path d="M84.2334 128.537C84.0762 127.869 83.4075 127.455 82.7398 127.612L66.0681 131.535C65.4004 131.692 64.9865 132.36 65.1435 133.028C65.278 133.6 65.7882 133.986 66.3514 133.986C66.4457 133.986 66.5413 133.975 66.637 133.953L83.3088 130.03C83.9765 129.873 84.3904 129.205 84.2334 128.537Z" fill="#666666"/>
<path d="M82.9609 123.128C82.804 122.46 82.1353 122.046 81.4673 122.204L64.7956 126.126C64.1279 126.283 63.714 126.952 63.8709 127.619C64.0055 128.192 64.5157 128.577 65.0789 128.577C65.1731 128.577 65.2688 128.566 65.3645 128.544L82.0363 124.621C82.704 124.465 83.1178 123.796 82.9609 123.128Z" fill="#666666"/>
<path d="M71.9464 117.415C71.7895 116.747 71.1208 116.333 70.4528 116.49L62.9442 118.257C62.2765 118.414 61.8626 119.082 62.0196 119.75C62.154 120.322 62.664 120.708 63.2275 120.708C63.3218 120.708 63.4174 120.697 63.5131 120.675L71.0218 118.908C71.6895 118.751 72.1034 118.082 71.9464 117.415Z" fill="#666666"/>
<path d="M180.906 183.754L173.336 151.581V130.06C173.336 129.375 172.781 128.818 172.094 128.818H167.981L167.073 124.958C166.916 124.29 166.247 123.877 165.579 124.033L145.24 128.818H125.291C124.605 128.818 124.049 129.375 124.049 130.06V133.804L120.018 134.752C119.698 134.828 119.42 135.028 119.247 135.308C119.073 135.588 119.018 135.925 119.094 136.246L124.049 157.306V190.462C124.049 191.148 124.605 191.704 125.291 191.704H132.141L132.927 195.042C133.002 195.363 133.202 195.64 133.482 195.814C133.68 195.936 133.907 196 134.136 196C134.231 196 134.326 195.989 134.421 195.967L152.54 191.704H172.095C172.781 191.704 173.337 191.148 173.337 190.462V186.811L179.981 185.248C180.649 185.091 181.063 184.422 180.906 183.754ZM170.852 131.302V141.022L168.566 131.302H170.852ZM126.533 131.302H134.682L126.533 133.22V131.302ZM126.533 189.22V167.865L131.557 189.22H126.533ZM170.852 189.22H163.099L170.852 187.396V189.22ZM135.06 193.264L121.796 136.886L164.939 126.736L178.203 183.114L135.06 193.264Z" fill="#666666"/>
<path d="M143.487 156.895L142.321 151.938C141.949 150.356 140.983 149.013 139.6 148.157C139.334 147.993 139.059 147.85 138.776 147.729C138.951 147.515 139.115 147.289 139.263 147.05C140.154 145.609 140.432 143.908 140.044 142.26C139.243 138.856 135.824 136.739 132.419 137.54C130.771 137.927 129.372 138.934 128.48 140.374C127.589 141.814 127.311 143.516 127.699 145.164C128.169 147.16 129.539 148.713 131.278 149.495C130.062 150.92 129.515 152.884 129.976 154.842L131.142 159.8C131.277 160.372 131.787 160.758 132.35 160.758C132.445 160.758 132.54 160.747 132.636 160.724L142.562 158.389C142.883 158.313 143.161 158.114 143.334 157.834C143.508 157.554 143.563 157.216 143.487 156.895ZM130.117 144.595C129.881 143.592 130.05 142.558 130.592 141.682C131.135 140.806 131.986 140.194 132.989 139.958C133.284 139.888 133.58 139.855 133.872 139.855C135.621 139.855 137.209 141.055 137.626 142.829C137.862 143.832 137.693 144.866 137.151 145.742C136.609 146.618 135.758 147.23 134.755 147.466L134.754 147.467C132.683 147.953 130.604 146.665 130.117 144.595ZM133.276 158.022L132.394 154.274C131.94 152.34 133.142 150.398 135.075 149.943L135.572 149.826C135.848 149.761 136.127 149.729 136.404 149.729C137.065 149.729 137.716 149.913 138.293 150.27C139.11 150.776 139.682 151.571 139.903 152.507L140.785 156.255L133.276 158.022Z" fill="#666666"/>
<path d="M155.872 182.391C155.715 181.723 155.046 181.31 154.379 181.467L139.234 185.03C138.567 185.187 138.153 185.855 138.31 186.523C138.444 187.095 138.955 187.481 139.518 187.481C139.612 187.481 139.708 187.47 139.803 187.448L154.948 183.885C155.616 183.728 156.029 183.059 155.872 182.391Z" fill="#666666"/>
<path d="M171.017 173.12C170.86 172.452 170.19 172.039 169.523 172.195L137.962 179.621C137.294 179.778 136.88 180.447 137.037 181.114C137.172 181.687 137.682 182.072 138.245 182.072C138.339 182.072 138.435 182.061 138.531 182.039L170.092 174.614C170.76 174.456 171.174 173.788 171.017 173.12Z" fill="#666666"/>
<path d="M169.744 167.711C169.587 167.044 168.918 166.63 168.251 166.787L136.689 174.212C136.021 174.369 135.608 175.038 135.764 175.705C135.899 176.278 136.409 176.663 136.972 176.663C137.067 176.663 137.162 176.653 137.258 176.63L168.82 169.205C169.488 169.048 169.902 168.379 169.744 167.711Z" fill="#666666"/>
<path d="M168.472 162.303C168.315 161.635 167.645 161.221 166.979 161.378L135.417 168.803C134.749 168.961 134.335 169.629 134.492 170.297C134.627 170.869 135.137 171.255 135.7 171.255C135.794 171.255 135.89 171.244 135.986 171.221L167.548 163.796C168.215 163.639 168.629 162.97 168.472 162.303Z" fill="#666666"/>
<path d="M167.199 156.894C167.043 156.226 166.373 155.812 165.706 155.969L134.144 163.395C133.476 163.552 133.063 164.22 133.219 164.888C133.354 165.46 133.864 165.846 134.427 165.846C134.522 165.846 134.617 165.835 134.713 165.813L166.275 158.387C166.943 158.23 167.356 157.562 167.199 156.894Z" fill="#666666"/>
<path d="M165.233 148.537C165.076 147.869 164.407 147.455 163.74 147.612L147.068 151.535C146.4 151.692 145.986 152.36 146.143 153.028C146.278 153.6 146.788 153.986 147.351 153.986C147.446 153.986 147.541 153.975 147.637 153.953L164.309 150.03C164.976 149.873 165.39 149.205 165.233 148.537Z" fill="#666666"/>
<path d="M163.961 143.128C163.804 142.46 163.135 142.046 162.467 142.204L145.796 146.126C145.128 146.283 144.714 146.952 144.871 147.619C145.005 148.192 145.516 148.577 146.079 148.577C146.173 148.577 146.269 148.566 146.364 148.544L163.036 144.621C163.704 144.465 164.118 143.796 163.961 143.128Z" fill="#666666"/>
<path d="M152.946 137.415C152.79 136.747 152.121 136.333 151.453 136.49L143.944 138.257C143.277 138.414 142.863 139.082 143.02 139.75C143.154 140.322 143.664 140.708 144.228 140.708C144.322 140.708 144.417 140.697 144.513 140.675L152.022 138.908C152.69 138.751 153.103 138.082 152.946 137.415Z" fill="#666666"/>
<defs>
<clipPath id="clip0">
<rect width="96" height="96" fill="white" transform="translate(425 62)"/>
</clipPath>
</defs>
</svg>
