<svg width="493" height="588" viewBox="0 0 493 588" fill="none" xmlns="http://www.w3.org/2000/svg">
<g clip-path="url(#clip0)">
<path d="M213.488 57.3332C219.286 35.698 240.843 23.2518 262.478 29.049L548.392 105.659C570.027 111.457 582.474 133.014 576.677 154.649L560.112 216.468L498.293 199.904L411.33 524.455C405.532 546.09 383.975 558.537 362.34 552.739L99.608 482.341C77.9728 476.543 65.5266 454.986 71.3238 433.351L81.6765 394.714L120.314 405.067L213.488 57.3332ZM502.434 184.449L548.798 196.873L561.222 150.508C564.742 137.37 557.389 124.635 544.251 121.114C531.113 117.594 518.378 124.947 514.857 138.085L502.434 184.449ZM395.875 520.314L499.402 133.944C501.68 125.443 506.841 118.543 513.342 112.832L258.337 44.5038C245.199 40.9834 232.464 48.3362 228.943 61.4743L135.768 409.208L359.863 469.254L349.51 507.891C345.99 521.029 353.343 533.764 366.481 537.285C379.619 540.805 392.354 533.452 395.875 520.314ZM92.9902 414.31L86.7786 437.492C83.2582 450.63 90.611 463.365 103.749 466.886L335.571 529.002C332.024 520.599 331.778 512.25 334.056 503.75L340.267 480.567L92.9902 414.31Z" fill="#FAFAFA"/>
<path d="M250.312 290.82L188.492 274.255L184.351 289.71L246.17 306.275L250.312 290.82Z" fill="#FAFAFA"/>
<path d="M428.042 338.443L265.766 294.961L261.625 310.416L423.901 353.897L428.042 338.443Z" fill="#FAFAFA"/>
<path d="M334.759 346.576L180.211 305.165L176.07 320.62L330.618 362.031L334.759 346.576Z" fill="#FAFAFA"/>
<path d="M419.76 369.352L350.213 350.717L346.072 366.172L415.619 384.807L419.76 369.352Z" fill="#FAFAFA"/>
<path d="M264.103 393.901L163.646 366.984L159.505 382.439L259.961 409.356L264.103 393.901Z" fill="#FAFAFA"/>
<path d="M403.195 431.172L279.557 398.043L275.416 413.497L399.054 446.626L403.195 431.172Z" fill="#FAFAFA"/>
<path d="M345.424 220.231L334.492 223.93L326.875 215.261C304.029 189.262 295.516 153.024 304.419 119.797L311.253 94.2946L370.106 91.0169L419.436 123.282L412.603 148.785C403.7 182.011 378.209 209.139 345.424 220.231ZM401.082 129.963L365.965 106.472L323.808 109.257L319.874 123.938C312.214 152.528 319.081 182.53 338.689 205.174L339.463 205.381L340.442 204.819C368.539 195.783 389.694 172.463 397.355 143.87L401.082 129.963Z" fill="#FAFAFA"/>
<path d="M334.294 131.943L350.163 134.537C348.19 148.09 351.83 162.318 360.577 172.944L348.557 183.8C336.774 169.049 331.079 150.129 334.294 131.943Z" fill="#FAFAFA"/>
<path d="M365.113 387.839L171.928 336.075L167.787 351.529L360.972 403.293L365.113 387.839Z" fill="#FAFAFA"/>
<path d="M411.478 400.262L380.568 391.98L376.427 407.434L407.336 415.717L411.478 400.262Z" fill="#FAFAFA"/>
<path d="M351.323 284.757L196.775 243.346L192.634 258.801L347.182 300.212L351.323 284.757Z" fill="#FAFAFA"/>
<path d="M436.324 307.533L366.778 288.898L362.636 304.353L432.183 322.988L436.324 307.533Z" fill="#FAFAFA"/>
<path d="M384.858 252.331L276.675 223.344L272.534 238.799L380.717 267.786L384.858 252.331Z" fill="#FAFAFA"/>
</g>
<defs>
<clipPath id="clip0">
<rect width="480" height="480" fill="white" transform="matrix(-0.965926 -0.258819 -0.258819 0.965926 587.938 124.294)"/>
</clipPath>
</defs>
</svg>
