<svg width="150" height="150" viewBox="0 0 150 150" fill="none" xmlns="http://www.w3.org/2000/svg">
<g clip-path="url(#clip0)">
<path d="M108.632 45.9721L117.752 36.4586L119.157 37.8777C120.289 39.0198 121.797 39.6527 123.405 39.6595H123.434C125.03 39.6595 126.533 39.0416 127.668 37.9166L134.307 31.3408C136.663 29.0051 136.681 25.1873 134.346 22.8298L125.074 13.4709C124.199 12.5885 122.775 12.5816 121.891 13.456C121.009 14.3303 121.002 15.7562 121.876 16.6386L131.148 25.9976C131.738 26.5915 131.733 27.554 131.138 28.1433L124.5 34.7203C124.214 35.0029 123.835 35.1597 123.433 35.1597C123.43 35.1597 123.427 35.1597 123.425 35.1597C123.019 35.1574 122.64 34.9984 122.353 34.71L119.449 31.778C119.41 31.7322 119.371 31.6864 119.328 31.643L112.627 24.8921L101.208 13.3667C100.62 12.7728 100.623 11.8092 101.218 11.2209L107.856 4.64402C108.451 4.05579 109.414 4.06037 110.003 4.65432L116.132 10.8421C117.007 11.7245 118.432 11.7314 119.315 10.857C120.197 9.98155 120.204 8.55676 119.33 7.67442L113.199 1.48659C110.865 -0.870897 107.046 -0.888063 104.688 1.44768L98.0507 8.02346C96.1899 9.86711 95.7939 12.632 96.8548 14.875L87.1628 13.6814C82.2727 13.0795 77.3312 14.8579 73.946 18.4387L58.5308 34.7466H46.8486C43.1705 34.7466 40.179 37.7392 40.179 41.4174V66.6447C40.179 67.8876 41.1861 68.8947 42.4289 68.8947C43.6718 68.8947 44.6788 67.8876 44.6788 66.6447V41.4174C44.6788 40.2203 45.6516 39.2476 46.8486 39.2476H71.2543C70.5826 40.4755 70.2003 41.8831 70.2003 43.3789C70.2003 48.1408 74.0753 52.0157 78.8372 52.0157H94.4641C97.3583 52.0157 100.203 51.3589 102.792 50.1469V91.1706H44.68V75.6455C44.68 74.4027 43.6729 73.3956 42.4301 73.3956C41.1873 73.3956 40.179 74.4027 40.179 75.6455V79.3958H27.8114C25.3086 79.3958 23.0495 80.8801 22.055 83.1792L14.756 100.088C14.4836 100.715 14.3543 101.38 14.3588 102.04C14.3577 102.064 14.3554 102.088 14.3554 102.112V142.848C14.3554 146.63 17.4327 149.707 21.215 149.707H126.258C130.04 149.707 133.118 146.63 133.118 142.848V102.075C133.118 102.049 133.114 102.025 133.113 102C133.113 101.371 132.991 100.739 132.739 100.139L125.665 83.2456C124.688 80.9075 122.419 79.3969 119.883 79.3969H107.293V47.2367C107.758 46.8373 108.205 46.4161 108.632 45.9721ZM119.884 83.8967C120.598 83.8967 121.238 84.3225 121.513 84.9828L128.589 101.879C128.633 101.985 128.624 102.087 128.561 102.182C128.497 102.278 128.406 102.326 128.291 102.326H118.894C117.651 102.326 116.643 103.333 116.643 104.576C116.643 105.819 117.651 106.826 118.894 106.826H128.291C128.4 106.826 128.509 106.823 128.617 106.815V142.848C128.617 144.148 127.559 145.206 126.258 145.206H21.215C19.915 145.206 18.8564 144.148 18.8564 142.848V106.815C18.9639 106.823 19.0727 106.826 19.1825 106.826H109.392C110.635 106.826 111.642 105.819 111.642 104.576C111.642 103.333 110.635 102.325 109.392 102.325H19.1825C19.0669 102.325 18.9754 102.277 18.9124 102.18C18.8484 102.084 18.8404 101.981 18.8861 101.873L26.1863 84.9645C26.4667 84.3156 27.1041 83.8967 27.8114 83.8967H40.179V91.2393H38.4807C37.2379 91.2393 36.2308 92.2464 36.2308 93.4892C36.2308 94.732 37.2379 95.7391 38.4807 95.7391H108.892C110.133 95.7391 111.142 94.732 111.142 93.4892C111.142 92.2464 110.133 91.2393 108.892 91.2393H107.293V83.8967H119.884ZM78.8383 47.5148C76.5575 47.5148 74.7013 45.6597 74.7013 43.3789C74.7013 41.0981 76.5575 39.2418 78.8383 39.2418H88.2477C89.4905 39.2418 90.4987 38.2348 90.4987 36.9919C90.4987 35.7491 89.4905 34.7409 88.2477 34.7409H64.7301L77.2179 21.5309C79.6246 18.9858 83.1356 17.7212 86.6135 18.1492L101.399 19.9688L109.376 28.0049L114.583 33.26L105.383 42.857C102.545 45.8176 98.5657 47.5159 94.4641 47.5159H78.8383V47.5148Z" fill="#333333"/>
<path d="M69.0857 82.1469C69.6613 82.1469 70.2381 81.9272 70.6764 81.4877L89.28 62.8854C90.1589 62.0065 90.1589 60.5817 89.28 59.7028C88.4011 58.8239 86.9763 58.8239 86.0974 59.7028L69.0857 76.7144L62.2753 69.904C61.3964 69.0251 59.9716 69.0251 59.0927 69.904C58.2138 70.7829 58.2138 72.2077 59.0927 73.0866L67.4938 81.4877C67.9333 81.9272 68.5101 82.1469 69.0857 82.1469Z" fill="#333333"/>
<path d="M38.094 116.202C35.0533 116.202 32.5802 118.675 32.5802 121.715V128.791C32.5802 131.832 35.0533 134.305 38.094 134.305H109.379C112.42 134.305 114.893 131.832 114.893 128.791V121.715C114.893 118.675 112.42 116.202 109.379 116.202H38.094ZM110.392 121.715V128.791C110.392 129.349 109.938 129.804 109.379 129.804H38.094C37.5355 129.804 37.0812 129.349 37.0812 128.791V121.715C37.0812 121.156 37.5355 120.702 38.094 120.702H109.379C109.938 120.702 110.392 121.156 110.392 121.715Z" fill="#333333"/>
</g>
<defs>
<clipPath id="clip0">
<rect width="150" height="150" fill="white"/>
</clipPath>
</defs>
</svg>
